<svg id="Layer_1" data-name="Layer 1" xmlns="http://www.w3.org/2000/svg" viewBox="0 0 1920 1080"><defs><style>.cls-1{fill:#1db954;}</style></defs><title>spotifyinactive</title><path class="cls-1" d="M793.72,436.83q0,102.29-47.76,169.44t-179,151q-121.39,77-165.75,139.25l-.62,1.24H793.72V1053H181.25v-.16q0-123.18,62.23-211.26t234.14-208.8q77-53.61,108.45-98.28T617.49,435q0-59.76-34.5-96.12T491.8,302.5q-60.41,0-94.28,45.6T366.1,472H193q-4.32-146,76.71-231.68T493,154.63q132.47,0,216.89,78.86Q793.71,312.38,793.72,436.83Z"/><path class="cls-1" d="M859.19,869.37h189.16V1053H859.19Z"/><path class="cls-1" d="M1174.21,964.57q-75.78-111.83-76.4-344.13.6-237.83,76.4-351.82t233.53-114q159,0,234.76,114t75.78,347.51v4.31q.62,232.3-75.48,344.13T1407.74,1076.4Q1250,1076.4,1174.21,964.57Zm333.35-102q28.95-70.86,29-243.39.6-176.84-28.66-249.24t-100.12-72.39q-70.24,0-98.9,72.39t-29.26,249.24q0,172.53,29,243.39t99.2,70.85Q1478.59,933.45,1507.56,862.6Z"/><path d="M340.25,177.94q0-14.58-12-23.38t-32-8.79q-19.23,0-30,6.6t-10.77,18.4q0,8.32,12.27,14.35,12,5.79,42.83,12.73,61.13,13.67,81.73,29.86T413,278.63q0,37-30,59.61T303.93,360.8q-58.11,0-89.48-22.22T181,273.77h67.59q.69,17.36,15.39,27.2t39.94,9.84q19.92,0,31.14-6.83t11.23-19.1q0-8.56-10.87-14.58-10.87-5.79-38.2-11.81-63.89-14.34-85.42-30.32-21.51-15.73-21.5-48.84,0-37.5,27.88-60.53t73.48-23q51.38,0,82.85,22.57T406,177.94Z"/><path d="M771.17,325.39q-34.84-35.42-34.84-95.6,0-61.56,34.84-97.79T865,95.77q59.47,0,94.2,36.23T994,229.79q0,60.2-34.72,95.6T865,360.8Q806,360.8,771.17,325.39Zm139-39.58q15.51-19.44,15.51-56.71,0-38.19-15.51-58T865,151.32q-29.64,0-45,19.8t-15.4,58q0,37.26,15.4,56.71t45,19.44Q894.66,305.25,910.16,285.81Z"/><path d="M1156.21,355.71q-16.67,1.4-41,1.39-35.17,0-50.57-12.62t-15.39-41.31V149h-35V102.48h35V34.67h66.43v67.81h40.5V149h-40.5V292.06q0,8.79,5.2,11.57t21.65,2.78h13.65Z"/><path d="M1200.19,11.52h67.59V73.09h-67.59Zm.7,91h66.43V354.32h-66.43Z"/><path d="M1622.39,359.65q-21.78,63.64-37.3,79.85t-55.35,16.21L1498,455V401.77q2.31.93,12.73.93,26.61,0,34.72-10.88,5.08-6.94,10.18-28.7l-93.91-260.64h73.32l54.8,186.8h.06l53.31-186.8h69.42Z"/><path d="M493.8,155.51a394.76,394.76,0,0,1,59.53,4.36q11.29-6.69,26.3-6.69,26.61,0,41.54,20.48a63.26,63.26,0,0,1,3.67,5.67,279.31,279.31,0,0,1,79.49,49.29c0-1.38.06-2.75.06-4.15q0-57.87-29-93.28t-77-35.42q-44,0-70.83,37.73l-4.4,6.25V102.48H460v54.31Q476.43,155.51,493.8,155.51Z"/><path d="M460,307.23v145.7h66.43V323.77l1.39,1.85q26.85,35.19,70.6,35.18c.43,0,.85,0,1.28,0a117.53,117.53,0,0,0-15.9-21q-34.51-36.35-91.19-36.35A134.28,134.28,0,0,0,460,307.23Z"/><path d="M1407.12,354.32V298.47q-40,.21-66.43,24.06v31.79h66.43Z"/><path d="M1340.69,161.36a367.92,367.92,0,0,1,66.43-5.84V149H1450V102.48h-42.83V91.14q0-16.42,4.29-21.76t17.47-5.32H1450v-53a215.18,215.18,0,0,0-31.25-1.62q-39.36,0-58.68,17.83t-19.33,54.16v21.06h-36.8V149h36.8Z"/></svg>