<svg xmlns="http://www.w3.org/2000/svg" viewBox="0 0 183.85 270.94"><defs><style>.cls-1,.cls-4{fill:#d8d8d8;}.cls-1,.cls-2,.cls-3{stroke:#263238;stroke-width:0.5px;}.cls-1,.cls-2{stroke-miterlimit:10;}.cls-2{fill:#fff;}.cls-3{fill:none;stroke-linecap:round;stroke-linejoin:round;}</style></defs><title>tab</title><g id="Windows"><path class="cls-1" d="M162.16,72.4l-3.41-9.79h-55.3V205.28H286.8V72.4ZM283.37,197.14H106.88V85.39H283.37Z" transform="translate(-103.2 -62.36)"/><rect class="cls-2" x="58.94" y="13.74" width="87.68" height="5.37"/><polyline class="cls-3" points="7.92 12.88 5.39 15.32 8.02 18.13"/><line class="cls-3" x1="5.39" y1="15.32" x2="11.02" y2="15.32"/><polyline class="cls-3" points="22.26 12.88 24.79 15.32 22.17 18.13"/><line class="cls-3" x1="24.79" y1="15.32" x2="19.17" y2="15.32"/><line class="cls-3" x1="173.13" y1="2.49" x2="176.68" y2="6.15"/><line class="cls-3" x1="176.74" y1="2.54" x2="173.07" y2="6.1"/><line class="cls-3" x1="170.87" y1="14.73" x2="177.91" y2="14.73"/><line class="cls-3" x1="170.87" y1="16.31" x2="177.91" y2="16.31"/><line class="cls-3" x1="170.87" y1="17.9" x2="177.91" y2="17.9"/><line class="cls-3" x1="170.87" y1="19.48" x2="177.91" y2="19.48"/><rect class="cls-1" x="0.25" y="140.3" width="183.35" height="130.38"/><rect class="cls-4" x="0.75" y="136.87" width="182.35" height="124.03"/><rect class="cls-2" x="3.68" y="23.03" width="176.49" height="245.1"/></g></svg>