<svg id="Layer_1" data-name="Layer 1" xmlns="http://www.w3.org/2000/svg" viewBox="0 0 1920 1080"><defs><style>.cls-1{fill:#1db954;}</style></defs><title>spotifyinactive</title><path class="cls-1" d="M844.28,444.13q0,92.45-43.16,153.14T639.35,733.7q-109.71,69.62-149.8,125.85l-.55,1.12H844.28V1001H290.75v-.14q0-111.33,56.25-190.94T558.61,621.21q69.6-48.45,98-88.82A152.65,152.65,0,0,0,685,442.46q0-54-31.19-86.87t-82.42-32.86q-54.57,0-85.2,41.21t-28.4,111.93H301.33q-3.9-132,69.33-209.38t201.87-77.41q119.72,0,196,71.28Q844.28,331.66,844.28,444.13Z"/><path class="cls-1" d="M903.45,835.05h171v166h-171Z"/><path class="cls-1" d="M1188.16,921.09q-68.49-101.07-69.05-311,.54-215,69.05-318t211-103q143.67,0,212.17,103t68.49,314.08v3.9q.56,209.94-68.21,311t-212.45,101.07Q1256.65,1022.16,1188.16,921.09Zm301.27-92.17q26.16-64,26.17-220,.54-159.81-25.9-225.25t-90.49-65.43q-63.48,0-89.37,65.43T1283.38,609q0,155.92,26.18,220t89.65,64Q1463.25,893,1489.43,828.92Z"/><path d="M434.45,210.16q0-13.18-10.88-21.13t-28.89-7.95q-17.37,0-27.11,6t-9.73,16.63q0,7.53,11.08,13,10.89,5.24,38.71,11.51,55.25,12.35,73.87,27t18.67,46q0,33.46-27.09,53.86t-71.45,20.4q-52.53,0-80.87-20.08t-30.23-58.58h61.08q.63,15.69,13.91,24.58t36.1,8.89q18,0,28.14-6.17t10.15-17.26q0-7.73-9.82-13.17-9.84-5.24-34.53-10.67-57.74-13-77.2-27.41-19.42-14.22-19.43-44.14,0-33.89,25.2-54.7t66.41-20.82q46.43,0,74.88,20.4t28.44,53.87Z"/><path d="M823.9,343.41q-31.49-32-31.48-86.39,0-55.65,31.48-88.39t84.83-32.74q53.76,0,85.14,32.74T1025.25,257q0,54.39-31.38,86.39t-85.14,32Q855.38,375.42,823.9,343.41Zm125.62-35.77q14-17.56,14-51.25,0-34.51-14-52.4T908.73,186.1Q881.94,186.1,868,204t-13.91,52.4q0,33.69,13.91,51.25t40.69,17.57Q935.51,325.21,949.52,307.64Z"/><path d="M1171.89,370.82q-15.06,1.24-37,1.25-31.8,0-45.71-11.4t-13.91-37.34V184h-31.59V142h31.59V80.67h60V142h36.61v42h-36.61V313.29q0,7.95,4.71,10.46t19.56,2.51h12.34Z"/><path d="M1211.64,59.75h61.08v55.64h-61.08Zm.63,82.21h60v227.6h-60Z"/><path d="M1593.21,374.37q-19.7,57.54-33.71,72.18t-50,14.64l-28.65-.63V412.45q2.09.82,11.5.83,24.06,0,31.38-9.83,4.6-6.27,9.2-25.94L1448,142h66.26l49.53,168.82h0L1612.05,142h62.74Z"/><path d="M573.23,189.88a355.54,355.54,0,0,1,53.79,4q10.22-6.06,23.77-6.06,24.06,0,37.55,18.52a52.75,52.75,0,0,1,3.31,5.12A252.26,252.26,0,0,1,763.49,256c0-1.25.06-2.49.06-3.75q0-52.31-26.26-84.31t-69.55-32q-39.75,0-64,34.1l-4,5.65V142H542.64V191Q557.52,189.89,573.23,189.88Z"/><path d="M542.64,327V458.68h60V342l1.25,1.67q24.27,31.8,63.81,31.8c.39,0,.77,0,1.16,0a106.86,106.86,0,0,0-14.37-19q-31.18-32.86-82.42-32.86A121.22,121.22,0,0,0,542.64,327Z"/><path d="M1398.66,369.56V319.09q-36.15.18-60,21.74v28.73h60Z"/><path d="M1338.62,195.17a332.74,332.74,0,0,1,60-5.28V184h38.7V142h-38.7V131.71q0-14.85,3.87-19.66t15.79-4.81h19V59.33a192.59,192.59,0,0,0-28.24-1.46q-35.56,0-53,16.1t-17.47,49v19h-33.26v42h33.26Z"/></svg>